<svg width="32" height="32" viewBox="0 0 32 32" fill="none" xmlns="http://www.w3.org/2000/svg">
  <rect width="32" height="32" rx="8" fill="#0A1128"/>
  <path d="M16 6C12.1 6 9 9.1 9 13C9 13.9 9.2 14.7 9.5 15.4C9.9 16.5 10.6 17.4 11.5 18.1C12.8 19.1 14.3 19.7 16 19.7C17.7 19.7 19.2 19.1 20.5 18.1C21.4 17.4 22.1 16.5 22.5 15.4C22.8 14.7 23 13.9 23 13C23 9.1 19.9 6 16 6Z" fill="#6C63FF"/>
  <path d="M23.5 19H8.5C7.1 19 6 20.1 6 21.5V23C6 24.4 7.1 25.5 8.5 25.5H23.5C24.9 25.5 26 24.4 26 23V21.5C26 20.1 24.9 19 23.5 19Z" fill="#3B5BD9"/>
</svg>
