<svg width="1440" height="800" viewBox="0 0 1440 800" fill="none" xmlns="http://www.w3.org/2000/svg">
  <rect width="1440" height="800" fill="#0A1128"/>
  <circle cx="720" cy="400" r="350" fill="url(#paint0_radial_0_1)" fill-opacity="0.2"/>
  <circle cx="720" cy="400" r="250" fill="url(#paint1_radial_0_1)" fill-opacity="0.3"/>
  <circle cx="720" cy="400" r="150" fill="url(#paint2_radial_0_1)" fill-opacity="0.4"/>
  <g opacity="0.6">
    <circle cx="123" cy="256" r="2" fill="white"/>
    <circle cx="423" cy="156" r="2" fill="white"/>
    <circle cx="723" cy="86" r="2" fill="white"/>
    <circle cx="1023" cy="156" r="2" fill="white"/>
    <circle cx="1323" cy="256" r="2" fill="white"/>
    <circle cx="223" cy="356" r="2" fill="white"/>
    <circle cx="523" cy="456" r="2" fill="white"/>
    <circle cx="823" cy="556" r="2" fill="white"/>
    <circle cx="1123" cy="656" r="2" fill="white"/>
    <circle cx="1423" cy="756" r="2" fill="white"/>
    <circle cx="123" cy="756" r="2" fill="white"/>
    <circle cx="323" cy="656" r="2" fill="white"/>
    <circle cx="623" cy="756" r="2" fill="white"/>
    <circle cx="923" cy="656" r="2" fill="white"/>
    <circle cx="1223" cy="556" r="2" fill="white"/>
    <circle cx="1423" cy="456" r="2" fill="white"/>
    <circle cx="1323" cy="356" r="2" fill="white"/>
    <circle cx="1123" cy="256" r="2" fill="white"/>
    <circle cx="923" cy="156" r="2" fill="white"/>
    <circle cx="623" cy="156" r="2" fill="white"/>
    <circle cx="323" cy="156" r="2" fill="white"/>
  </g>
  <defs>
    <radialGradient id="paint0_radial_0_1" cx="0" cy="0" r="1" gradientUnits="userSpaceOnUse" gradientTransform="translate(720 400) rotate(90) scale(350)">
      <stop offset="0" stop-color="#6C63FF"/>
      <stop offset="1" stop-color="#0A1128" stop-opacity="0"/>
    </radialGradient>
    <radialGradient id="paint1_radial_0_1" cx="0" cy="0" r="1" gradientUnits="userSpaceOnUse" gradientTransform="translate(720 400) rotate(90) scale(250)">
      <stop offset="0" stop-color="#6C63FF"/>
      <stop offset="1" stop-color="#0A1128" stop-opacity="0"/>
    </radialGradient>
    <radialGradient id="paint2_radial_0_1" cx="0" cy="0" r="1" gradientUnits="userSpaceOnUse" gradientTransform="translate(720 400) rotate(90) scale(150)">
      <stop offset="0" stop-color="#6C63FF"/>
      <stop offset="1" stop-color="#0A1128" stop-opacity="0"/>
    </radialGradient>
  </defs>
</svg>
